<?xml version="1.0" encoding="UTF-8" standalone="no"?>
<!DOCTYPE svg PUBLIC "-//W3C//DTD SVG 1.1//EN" "http://www.w3.org/Graphics/SVG/1.1/DTD/svg11.dtd">
<svg version="1.1" xmlns="http://www.w3.org/2000/svg" xmlns:xlink="http://www.w3.org/1999/xlink" preserveAspectRatio="xMidYMid meet" viewBox="109.32752700049387 176.54838291275718 202.21349978548136 386.62696612379756" width="202.21" height="386.63"><defs><path d="M310.45 437.06C314.5 455.09 306.96 472.41 293.63 475.71C280.29 479.02 266.18 467.06 262.13 449.03C258.08 431 265.61 413.68 278.95 410.38C292.28 407.08 306.39 419.03 310.45 437.06Z" id="e5shh3Dw15"></path><path d="M286.3 282.53C286.3 300.43 278.03 314.96 267.84 314.96C257.65 314.96 249.37 300.43 249.37 282.53C249.37 264.63 257.65 250.09 267.84 250.09C278.03 250.09 286.3 264.63 286.3 282.53Z" id="e5DxOtBJD"></path><path d="M290.39 230.99C290.39 259.44 272.85 282.53 251.24 282.53C229.62 282.53 212.08 259.44 212.08 230.99C212.08 202.55 229.62 179.46 251.24 179.46C272.85 179.46 290.39 202.55 290.39 230.99Z" id="b4dbltWn3l"></path><path d="M300.99 228.08C300.99 256.52 282.73 279.61 260.24 279.61C237.75 279.61 219.49 256.52 219.49 228.08C219.49 199.64 237.75 176.55 260.24 176.55C282.73 176.55 300.99 199.64 300.99 228.08Z" id="f2Nu7TTjMR"></path><path d="M294.16 301.54C303.14 301.54 310.42 308.81 310.42 317.79C310.42 342.55 310.42 400.59 310.42 425.36C310.42 434.33 303.14 441.61 294.16 441.61C280.45 441.61 255.57 441.61 241.86 441.61C232.88 441.61 225.61 434.33 225.61 425.36C225.61 400.59 225.61 342.55 225.61 317.79C225.61 308.81 232.88 301.54 241.86 301.54C255.57 301.54 280.45 301.54 294.16 301.54Z" id="c1d4UWyWEZ"></path><path d="M241.78 538.02C244.32 538.02 246.38 540.09 246.38 542.63C246.38 545.4 246.38 549.08 246.38 551.84C246.38 554.39 244.32 556.45 241.78 556.45C230.4 556.45 200.86 556.45 189.48 556.45C186.94 556.45 184.88 554.39 184.88 551.84C184.88 549.08 184.88 545.4 184.88 542.63C184.88 540.09 186.94 538.02 189.48 538.02C200.86 538.02 230.4 538.02 241.78 538.02Z" id="bs1HV4x1L"></path><path d="M215.61 219.07C215.17 197.49 226.46 179.75 240.83 179.46C255.2 179.17 267.21 196.42 267.65 218C268.09 239.59 256.8 257.32 243.1 290.52C228.06 257.91 216.05 240.65 215.61 219.07Z" id="d4YVYbqys"></path><path d="M213.15 456.5C213.06 451.81 216.78 447.94 221.47 447.86C226.31 447.76 232.33 447.65 237.17 447.56C241.85 447.47 245.72 451.2 245.81 455.88C246.19 475.87 247.16 527.36 247.54 547.35C247.63 552.04 243.9 555.91 239.22 555.99C234.38 556.09 228.35 556.2 223.52 556.29C218.83 556.38 214.96 552.65 214.88 547.97C214.5 527.98 213.52 476.49 213.15 456.5Z" id="at713P66t"></path><path d="M262.69 248.24C260.93 228.29 267.74 211.39 277.89 210.49C288.05 209.59 297.72 225.04 299.48 244.99C301.24 264.94 294.44 281.84 286.97 313.16C274.12 283.63 264.46 268.19 262.69 248.24Z" id="f87KOz9Cc"></path><path d="M218.23 235.07C214.98 217.93 215.15 203.5 218.61 202.85C222.07 202.19 227.51 215.55 230.76 232.69C234.02 249.84 233.85 264.27 235.35 291.06C226.92 265.58 221.48 252.22 218.23 235.07Z" id="i3TFEcvyD4"></path><path d="M270.43 255.79C266.7 236.12 267.03 219.53 271.18 218.74C275.33 217.95 281.72 233.27 285.45 252.94C289.18 272.62 288.85 289.21 290.39 320C280.55 290.78 274.17 275.47 270.43 255.79Z" id="bWdFBiuOt"></path><path d="M254.53 321.71C256.76 324.35 256.43 328.3 253.79 330.53C243.33 339.37 216.73 361.84 206.27 370.68C203.63 372.91 199.68 372.58 197.45 369.94C194.04 365.9 187.85 358.58 184.44 354.55C182.21 351.91 182.54 347.96 185.18 345.73C195.64 336.89 222.24 314.41 232.7 305.58C235.35 303.34 239.3 303.68 241.53 306.32C244.94 310.35 251.12 317.67 254.53 321.71Z" id="a7gNG8ZaIK"></path><path d="M134.96 345.98C147.95 347.89 157.58 355.6 156.46 363.19C155.35 370.77 143.9 375.38 130.92 373.46C117.93 371.55 108.3 363.84 109.42 356.26C110.53 348.67 121.98 344.07 134.96 345.98Z" id="gUR9CWDXl"></path><path d="M205.73 367.53C205.78 370.47 203.44 372.89 200.5 372.94C188.68 373.14 158.55 373.64 146.73 373.83C143.79 373.88 141.37 371.54 141.32 368.6C141.24 364.11 141.11 355.96 141.04 351.47C140.99 348.53 143.33 346.11 146.27 346.06C158.09 345.86 188.22 345.36 200.03 345.16C202.97 345.12 205.4 347.46 205.45 350.4C205.52 354.89 205.66 363.04 205.73 367.53Z" id="bAyqZH6Dc"></path><path d="M289.41 430.67C293.95 430.67 297.62 434.34 297.62 438.88C297.62 446.45 297.62 460.98 297.62 468.55C297.62 473.08 293.95 476.76 289.41 476.76C270.07 476.76 220.26 476.76 200.92 476.76C196.38 476.76 192.71 473.08 192.71 468.55C192.71 460.98 192.71 446.45 192.71 438.88C192.71 434.34 196.38 430.67 200.92 430.67C220.26 430.67 270.07 430.67 289.41 430.67Z" id="a2QfMJBMH7"></path><path d="M228.47 453.71C228.47 466.43 216.13 476.76 200.93 476.76C185.72 476.76 173.38 466.43 173.38 453.71C173.38 441 185.72 430.67 200.93 430.67C216.13 430.67 228.47 441 228.47 453.71Z" id="a28falgaof"></path><path d="M173.38 456.56C173.29 451.84 177.05 447.94 181.77 447.85C186.59 447.76 192.52 447.65 197.34 447.56C202.06 447.47 205.96 451.23 206.05 455.95C206.45 477.27 207.5 532.69 207.9 554.01C207.99 558.73 204.24 562.63 199.51 562.72C194.69 562.81 188.77 562.92 183.95 563.01C179.23 563.1 175.33 559.35 175.24 554.63C174.83 533.3 173.79 477.89 173.38 456.56Z" id="c2awvWlRf"></path><path d="M304.8 430.67C306.54 430.67 307.95 432.08 307.95 433.82C307.95 438.74 307.95 450.37 307.95 455.3C307.95 457.04 306.54 458.45 304.8 458.45C297.38 458.45 278.27 458.45 270.85 458.45C269.11 458.45 267.7 457.04 267.7 455.3C267.7 450.37 267.7 438.74 267.7 433.82C267.7 432.08 269.11 430.67 270.85 430.67C278.27 430.67 297.38 430.67 304.8 430.67Z" id="b46E58IEU"></path><path d="M202.53 541.67C205.5 541.67 207.9 544.07 207.9 547.04C207.9 550.27 207.9 554.57 207.9 557.8C207.9 560.77 205.5 563.18 202.53 563.18C191.3 563.18 163 563.18 151.77 563.18C148.8 563.18 146.39 560.77 146.39 557.8C146.39 554.57 146.39 550.27 146.39 547.04C146.39 544.07 148.8 541.67 151.77 541.67C163 541.67 191.3 541.67 202.53 541.67Z" id="j1Y4TToFKQ"></path></defs><g><g><use xlink:href="#e5shh3Dw15" opacity="1" fill="#32312e" fill-opacity="1"></use></g><g><use xlink:href="#e5DxOtBJD" opacity="1" fill="#eacca0" fill-opacity="1"></use></g><g><use xlink:href="#b4dbltWn3l" opacity="1" fill="#eacca0" fill-opacity="1"></use></g><g><use xlink:href="#f2Nu7TTjMR" opacity="1" fill="#634f2c" fill-opacity="1"></use></g><g><use xlink:href="#c1d4UWyWEZ" opacity="1" fill="#959595" fill-opacity="1"></use></g><g><use xlink:href="#bs1HV4x1L" opacity="1" fill="#32312e" fill-opacity="1"></use></g><g><use xlink:href="#d4YVYbqys" opacity="1" fill="#65552e" fill-opacity="1"></use></g><g><use xlink:href="#at713P66t" opacity="1" fill="#2c2b29" fill-opacity="1"></use></g><g><use xlink:href="#f87KOz9Cc" opacity="1" fill="#b49959" fill-opacity="1"></use></g><g><use xlink:href="#i3TFEcvyD4" opacity="1" fill="#7a6636" fill-opacity="1"></use></g><g><use xlink:href="#bWdFBiuOt" opacity="1" fill="#9f8648" fill-opacity="1"></use></g><g><use xlink:href="#a7gNG8ZaIK" opacity="1" fill="#959595" fill-opacity="1"></use></g><g><use xlink:href="#gUR9CWDXl" opacity="1" fill="#eacca0" fill-opacity="1"></use></g><g><use xlink:href="#bAyqZH6Dc" opacity="1" fill="#959595" fill-opacity="1"></use></g><g><use xlink:href="#a2QfMJBMH7" opacity="1" fill="#32312e" fill-opacity="1"></use></g><g><use xlink:href="#a28falgaof" opacity="1" fill="#32312e" fill-opacity="1"></use></g><g><use xlink:href="#c2awvWlRf" opacity="1" fill="#32312e" fill-opacity="1"></use></g><g><use xlink:href="#b46E58IEU" opacity="1" fill="#32312e" fill-opacity="1"></use></g><g><use xlink:href="#j1Y4TToFKQ" opacity="1" fill="#2f2918" fill-opacity="1"></use></g></g></svg>