<?xml version="1.0" encoding="UTF-8" standalone="no"?>
<!DOCTYPE svg PUBLIC "-//W3C//DTD SVG 1.1//EN" "http://www.w3.org/Graphics/SVG/1.1/DTD/svg11.dtd">
<svg version="1.1" xmlns="http://www.w3.org/2000/svg" xmlns:xlink="http://www.w3.org/1999/xlink" preserveAspectRatio="xMidYMid meet" viewBox="0 0 640 640" width="640" height="640"><defs><path d="M249.89 328.16L249.89 340.65L171.13 340.65L171.13 328.16L249.89 328.16Z" id="a4JrN0BInz"></path><path d="M523.62 328.16L523.62 340.65L249.89 340.65L249.89 328.16L523.62 328.16Z" id="guX86c8hN"></path><path d="M259.4 348.33L259.4 360.82L187.46 360.82L187.46 348.33L259.4 348.33Z" id="jxp07YNqo"></path><path d="M512.09 348.33L512.09 360.82L259.4 360.82L259.4 348.33L512.09 348.33Z" id="b39AfrcwsN"></path><path d="M259.4 340.65L259.4 348.33L187.46 348.33L187.46 340.65L259.4 340.65Z" id="f2rrtJS3Ap"></path><path d="M338.25 340.65L512.09 340.65L512.09 348.33L315.2 348.33L304.63 348.33L259.4 348.33L259.4 340.65L338.25 340.65Z" id="alh5hXZa5"></path><path d="M211.79 360.82L211.79 503.01L196.76 503.01L196.76 360.82L211.79 360.82Z" id="d50FclT23F"></path><path d="M284.34 360.82L284.34 510.31L269.31 510.31L269.31 360.82L284.34 360.82Z" id="c3AiNKfW7P"></path><path d="M211.79 503.01L211.79 510.31L196.76 510.31L196.76 503.01L211.79 503.01Z" id="jWHRnjHS"></path><path d="M284.34 510.31L284.34 517.99L269.31 517.99L269.31 510.31L284.34 510.31Z" id="b3PRJUE7VG"></path><path d="M415.81 360.82L415.81 496.06L400.79 496.06L400.79 360.82L415.81 360.82Z" id="aDVZLTnl6"></path><path d="M512.09 363.46L512.09 509.3L498.32 509.3L498.32 363.46L512.09 363.46Z" id="cu3HETtFK"></path><path d="M415.81 496.06L415.81 503.01L400.79 503.01L400.79 496.06L415.81 496.06Z" id="d2BavE3pQ"></path><path d="M512.09 506.66L512.09 514.15L498.32 514.15L498.32 506.66L512.09 506.66Z" id="a2qrUyyq0h"></path><path d="M362.93 322.86L362.93 328.3L317.43 328.3L317.43 322.86L362.93 322.86Z" id="b1n7GAWDVx"></path><path d="M317.43 322.86L317.43 328.3L306.23 328.3L306.23 322.86L317.43 322.86Z" id="aQhbW0PPG"></path><path d="M328.08 312.62L343.11 312.62L343.11 322.86L343.11 322.86L328.08 322.86L328.08 312.62Z" id="a3JP6iXEt2"></path><path d="M328.08 312.62L328.08 322.86L324.33 322.86L324.33 312.62L328.08 312.62Z" id="aUpCwpkK"></path><path d="M222.87 314.07C216.76 314.07 211.79 307.97 211.79 300.46C211.79 292.96 216.76 286.86 222.87 286.86C228.99 286.86 233.96 292.96 233.96 300.46C233.96 307.97 228.99 314.07 222.87 314.07Z" id="a7LAImvu5y"></path><path d="M402.12 213.52C402.12 233.34 402.12 287.94 402.12 307.76C402.12 310.44 399.95 312.62 397.27 312.62C369.53 312.62 291.17 312.62 263.43 312.62C260.75 312.62 258.57 310.44 258.57 307.76C258.57 287.94 258.57 233.34 258.57 213.52C258.57 210.84 260.75 208.66 263.43 208.66C291.17 208.66 369.53 208.66 397.27 208.66C399.95 208.66 402.12 210.84 402.12 213.52Z" id="aKoKqyAE"></path><path d="M409.63 213.52C409.63 233.34 409.63 287.94 409.63 307.76C409.63 310.44 407.46 312.62 404.77 312.62C377.03 312.62 298.68 312.62 270.94 312.62C268.26 312.62 266.08 310.44 266.08 307.76C266.08 287.94 266.08 233.34 266.08 213.52C266.08 210.84 268.26 208.66 270.94 208.66C298.68 208.66 377.03 208.66 404.77 208.66C407.46 208.66 409.63 210.84 409.63 213.52Z" id="a1qvf8SgH6"></path><path d="M409.63 213.52C409.63 230.4 409.63 276.19 409.63 293.07C409.63 295.75 407.46 297.93 404.77 297.93C377.03 297.93 298.68 297.93 270.94 297.93C268.26 297.93 266.08 295.75 266.08 293.07C266.08 276.19 266.08 230.4 266.08 213.52C266.08 210.84 268.26 208.66 270.94 208.66C298.68 208.66 377.03 208.66 404.77 208.66C407.46 208.66 409.63 210.84 409.63 213.52Z" id="eWfXRF7ka"></path><path d="M402.12 217.3L402.12 290.74L273.33 290.74L273.33 217.3L402.12 217.3Z" id="a1jF2fjm1J"></path><path d="M223.97 314.57C218.64 314.57 214.32 308.48 214.32 300.97C214.32 293.46 218.64 287.37 223.97 287.37C229.29 287.37 233.61 293.46 233.61 300.97C233.61 308.48 229.29 314.57 223.97 314.57Z" id="eriQxTEKC"></path><path d="M219.88 290.42L219.47 290.59L219.06 290.75L218.64 289.08L218.22 287.42L219.05 288.92L219.88 290.42Z" id="bVMQ2C32i"></path><path d="M409.63 291.98L409.63 297.43L266.08 297.43L266.08 291.98L409.63 291.98Z" id="g4BRMctxK0"></path><path d="M219.84 309.09L233.61 309.09L233.61 327.98L233.61 327.98L219.84 327.98L219.84 309.09Z" id="b5v7LN9Ots"></path><path d="M219.84 309.09L219.84 327.98L210.51 327.98L210.51 309.09L219.84 309.09Z" id="c4owQwDWB"></path><path d="M223.31 306.29L222.87 306.24L222.44 306.18L222.85 304.52L223.27 302.86L223.29 304.57L223.31 306.29Z" id="gXZKeNa8P"></path><path d="M215.43 293.83L215.06 294.06L214.69 294.3L213.95 292.75L213.22 291.2L214.32 292.52L215.43 293.83Z" id="c7WcryctH"></path><path d="M229.25 292.76L228.92 292.48L228.58 292.19L229.85 291.04L231.11 289.88L230.18 291.32L229.25 292.76Z" id="b1nGylbKgR"></path><path d="M227.65 296.54L227.35 296.23L227.04 295.91L228.42 294.89L229.79 293.86L228.72 295.2L227.65 296.54Z" id="a31hHA5BqT"></path><path d="M221.09 294.44L220.65 294.45L220.21 294.47L220.38 292.76L220.54 291.05L220.82 292.75L221.09 294.44Z" id="ao0E1NcWQ"></path><path d="M232.68 300.63L232.43 300.27L232.18 299.91L233.7 299.12L235.22 298.32L233.95 299.48L232.68 300.63Z" id="f2SwCOfjG4"></path><path d="M219.07 298.26L218.69 298.48L218.31 298.7L217.66 297.11L217 295.53L218.04 296.89L219.07 298.26Z" id="a1Z8MQt7Dz"></path><path d="M227.09 301.89L226.75 301.62L226.41 301.34L227.65 300.16L228.89 298.97L227.99 300.43L227.09 301.89Z" id="b1U6tK5zIc"></path><path d="M217.32 303.51L216.94 303.73L216.56 303.95L215.91 302.36L215.25 300.78L216.29 302.14L217.32 303.51Z" id="ajFB16ge0"></path><path d="M224.84 289.98L224.41 289.91L223.98 289.84L224.45 288.19L224.92 286.55L224.88 288.26L224.84 289.98Z" id="b1H2ORBthY"></path><path d="M213.32 298.51L212.94 298.73L212.56 298.95L211.91 297.36L211.25 295.78L212.29 297.14L213.32 298.51Z" id="cUB3tHHDN"></path><path d="M441.57 441L451.08 441L451.08 464.12L441.57 464.12L441.57 441Z" id="a1iqPheHF6"></path><path d="M230.64 307.26L230.31 306.97L229.98 306.68L231.26 305.54L232.55 304.41L231.59 305.83L230.64 307.26Z" id="eDxWrPOBL"></path><path d="M461.39 422.02L461.43 422.02L461.46 422.03L461.5 422.04L461.54 422.05L461.57 422.06L461.61 422.07L461.64 422.09L461.68 422.11L461.71 422.12L461.74 422.14L461.77 422.17L461.8 422.19L461.83 422.21L461.85 422.24L461.88 422.27L461.9 422.29L461.93 422.32L461.95 422.35L461.97 422.38L461.99 422.42L462 422.45L462.02 422.48L462.03 422.52L462.05 422.55L462.06 422.59L462.06 422.61L463.09 422.99L464.25 423.68L465.14 424.51L465.7 425.45L465.9 426.48L465.7 427.5L465.13 428.44L464.25 429.26L463.08 429.95L462.06 430.34L462.05 430.35L462.04 430.39L462.03 430.43L462.01 430.46L462 430.5L461.98 430.53L461.96 430.56L461.94 430.59L461.92 430.62L461.9 430.65L461.87 430.68L461.85 430.71L461.82 430.73L461.79 430.76L461.77 430.78L461.73 430.8L461.7 430.82L461.67 430.84L461.64 430.86L461.6 430.87L461.57 430.89L461.53 430.9L461.5 430.91L461.46 430.92L461.42 430.92L461.38 430.93L461.34 430.93L461.3 430.93L390.74 430.89L390.7 430.89L390.66 430.89L390.62 430.88L390.58 430.87L390.55 430.87L390.51 430.86L390.47 430.84L390.44 430.83L390.4 430.81L390.37 430.8L390.34 430.78L390.31 430.76L390.28 430.74L390.25 430.71L390.23 430.69L389.01 430.44L387.61 429.91L386.45 429.22L385.56 428.39L385 427.45L384.8 426.43L385 425.4L385.57 424.47L386.45 423.64L387.62 422.95L389.02 422.42L390.23 422.17L390.25 422.15L390.28 422.12L390.31 422.1L390.34 422.08L390.38 422.06L390.41 422.05L390.44 422.03L390.48 422.02L390.51 422L390.55 421.99L390.59 421.99L390.63 421.98L390.67 421.97L390.7 421.97L390.74 421.97L392.32 421.97L392.32 421.97L458.38 422.01L461.31 422.01L461.35 422.01L461.35 422.01L461.39 422.02Z" id="eG0SNN0Pz"></path><path d="M457.41 433.8C457.41 439.01 452.45 443.25 446.33 443.25C440.21 443.25 435.24 439.01 435.24 433.8C435.24 428.59 440.21 424.36 446.33 424.36C452.45 424.36 457.41 428.59 457.41 433.8Z" id="aejAIopi3"></path><path d="M495.39 422.02L495.43 422.02L495.46 422.03L495.5 422.04L495.54 422.05L495.57 422.06L495.61 422.07L495.64 422.09L495.68 422.11L495.71 422.12L495.74 422.14L495.77 422.17L495.8 422.19L495.83 422.21L495.85 422.24L495.88 422.27L495.9 422.29L495.93 422.32L495.95 422.35L495.97 422.38L495.99 422.42L496 422.45L496.02 422.48L496.03 422.52L496.05 422.55L496.06 422.59L496.06 422.61L497.09 422.99L498.25 423.68L499.14 424.51L499.7 425.45L499.9 426.48L499.7 427.5L499.13 428.44L498.25 429.26L497.08 429.95L496.06 430.34L496.05 430.35L496.04 430.39L496.03 430.43L496.01 430.46L496 430.5L495.98 430.53L495.96 430.56L495.94 430.59L495.92 430.62L495.9 430.65L495.87 430.68L495.85 430.71L495.82 430.73L495.79 430.76L495.77 430.78L495.73 430.8L495.7 430.82L495.67 430.84L495.64 430.86L495.6 430.87L495.57 430.89L495.53 430.9L495.5 430.91L495.46 430.92L495.42 430.92L495.38 430.93L495.34 430.93L495.3 430.93L424.74 430.89L424.7 430.89L424.66 430.89L424.62 430.88L424.58 430.87L424.55 430.87L424.51 430.86L424.47 430.84L424.44 430.83L424.4 430.81L424.37 430.8L424.34 430.78L424.31 430.76L424.28 430.74L424.25 430.71L424.23 430.69L423.01 430.44L421.61 429.91L420.45 429.22L419.56 428.39L419 427.45L418.8 426.43L419 425.4L419.57 424.47L420.45 423.64L421.62 422.95L423.02 422.42L424.23 422.17L424.25 422.15L424.28 422.12L424.31 422.1L424.34 422.08L424.38 422.06L424.41 422.05L424.44 422.03L424.48 422.02L424.51 422L424.55 421.99L424.59 421.99L424.63 421.98L424.67 421.97L424.7 421.97L424.74 421.97L426.32 421.97L426.32 421.97L492.38 422.01L495.31 422.01L495.35 422.01L495.35 422.01L495.39 422.02Z" id="alP8h8XeW"></path><path d="M498.68 291.98C502.95 291.98 506.41 295.44 506.41 299.71C506.41 316.02 506.41 357.21 506.41 373.52C506.41 377.79 502.95 381.25 498.68 381.25C480.18 381.25 432.41 381.25 413.91 381.25C409.65 381.25 406.19 377.79 406.19 373.52C406.19 357.21 406.19 316.02 406.19 299.71C406.19 295.44 409.65 291.98 413.91 291.98C432.41 291.98 480.18 291.98 498.68 291.98Z" id="a4e5awFO8S"></path><path d="M504.36 291.98C508.63 291.98 512.09 295.44 512.09 299.71C512.09 316.02 512.09 357.21 512.09 373.52C512.09 377.79 508.63 381.25 504.36 381.25C486.31 381.25 439.88 381.25 421.83 381.25C417.56 381.25 414.1 377.79 414.1 373.52C414.1 357.21 414.1 316.02 414.1 299.71C414.1 295.44 417.56 291.98 421.83 291.98C439.88 291.98 486.31 291.98 504.36 291.98Z" id="a7zVJkOvZ"></path><path d="M504.44 405.47C505.34 405.47 506.08 406.2 506.08 407.1C506.08 410.55 506.08 419.27 506.08 422.72C506.08 423.62 505.34 424.36 504.44 424.36C479.74 424.36 407.26 424.36 382.56 424.36C381.66 424.36 380.93 423.62 380.93 422.72C380.93 419.27 380.93 410.55 380.93 407.1C380.93 406.2 381.66 405.47 382.56 405.47C407.26 405.47 479.74 405.47 504.44 405.47Z" id="a9ELWToaM"></path><path d="M418.33 424.33L418.26 424.32L418.2 424.31L418.14 424.29L418.07 424.27L418.01 424.25L417.95 424.23L417.9 424.2L417.84 424.17L417.78 424.14L417.73 424.11L417.68 424.08L417.62 424.04L417.57 424L417.53 423.96L417.48 423.92L417.43 423.88L417.39 423.83L417.35 423.79L417.31 423.74L417.27 423.69L417.23 423.64L417.2 423.58L417.17 423.53L417.14 423.47L417.11 423.42L417.08 423.36L417.06 423.3L417.04 423.24L417.02 423.18L417.01 423.14L416.45 422.83L415.37 422.04L414.42 421.11L413.61 420.05L412.95 418.89L412.46 417.64L412.16 416.31L412.05 414.91L412.16 413.52L412.46 412.18L412.95 410.93L413.61 409.77L414.42 408.72L415.37 407.78L416.45 406.99L417.01 406.68L417.02 406.65L417.04 406.58L417.06 406.52L417.08 406.47L417.11 406.41L417.14 406.35L417.17 406.29L417.2 406.24L417.23 406.19L417.27 406.14L417.31 406.09L417.35 406.04L417.39 405.99L417.43 405.95L417.48 405.9L417.53 405.86L417.57 405.82L417.62 405.78L417.68 405.75L417.73 405.71L417.78 405.68L417.84 405.65L417.9 405.62L417.95 405.59L418.01 405.57L418.07 405.55L418.14 405.53L418.2 405.51L418.26 405.5L418.33 405.49L418.39 405.48L418.46 405.47L418.52 405.47L418.59 405.47L507.83 405.47L507.9 405.47L507.96 405.47L508.03 405.48L508.09 405.49L508.16 405.5L508.22 405.51L508.29 405.53L508.35 405.55L508.41 405.57L508.47 405.59L508.52 405.62L508.58 405.65L508.64 405.68L508.69 405.71L508.74 405.75L508.77 405.77L509.24 405.87L510.52 406.34L511.7 406.99L512.78 407.78L513.73 408.72L514.54 409.77L515.2 410.93L515.69 412.18L515.99 413.52L516.1 414.91L515.99 416.31L515.69 417.64L515.2 418.89L514.54 420.05L513.73 421.11L512.78 422.04L511.7 422.83L510.52 423.48L509.24 423.96L508.77 424.06L508.74 424.08L508.69 424.11L508.64 424.14L508.58 424.17L508.52 424.2L508.47 424.23L508.41 424.25L508.35 424.27L508.29 424.29L508.22 424.31L508.16 424.32L508.09 424.33L508.03 424.34L507.96 424.35L507.9 424.35L507.83 424.36L418.59 424.36L418.52 424.35L418.46 424.35L418.39 424.34L418.39 424.34L418.33 424.33Z" id="a8B6dewDT8"></path><path d="M391.7 414.91C391.7 420.12 387.38 424.36 382.06 424.36C376.73 424.36 372.41 420.12 372.41 414.91C372.41 409.7 376.73 405.47 382.06 405.47C387.38 405.47 391.7 409.7 391.7 414.91Z" id="a1m0Ou5KIZ"></path><path d="M468.92 422.53L468.91 422.57L468.9 422.61L468.89 422.65L468.88 422.69L468.87 422.73L468.86 422.77L468.84 422.8L468.83 422.84L468.81 422.87L468.79 422.91L468.77 422.94L468.74 422.97L468.72 423.01L468.7 423.04L468.69 423.04L468.58 423.7L468.17 425.1L467.62 426.35L466.95 427.43L466.17 428.32L465.3 428.99L464.36 429.41L463.35 429.56L462.35 429.42L461.4 429L460.52 428.34L459.74 427.46L459.06 426.38L458.5 425.14L458.08 423.74L457.97 423.08L457.96 423.08L457.93 423.05L457.91 423.01L457.89 422.98L457.87 422.95L457.85 422.92L457.83 422.88L457.81 422.84L457.8 422.81L457.78 422.77L457.77 422.73L457.76 422.69L457.75 422.65L457.74 422.61L457.73 422.57L457.73 422.53L457.73 422.49L457.73 422.45L457.41 338.49L457.41 338.45L457.42 338.4L457.42 338.36L457.43 338.32L457.43 338.28L457.44 338.24L457.45 338.2L457.47 338.17L457.48 338.13L457.5 338.09L457.51 338.06L457.53 338.02L457.55 337.99L457.57 337.95L457.59 337.92L457.62 337.89L457.64 337.86L457.67 337.83L457.69 337.8L457.72 337.77L457.75 337.75L457.78 337.72L457.81 337.7L457.85 337.68L457.88 337.66L457.91 337.64L457.95 337.62L457.98 337.6L458.02 337.58L458.06 337.57L458.1 337.56L458.13 337.55L458.17 337.4L458.72 336.15L459.39 335.07L460.17 334.18L461.04 333.51L461.99 333.09L462.99 332.94L464 333.08L464.95 333.5L465.82 334.16L466.61 335.04L467.29 336.12L467.84 337.36L467.89 337.51L467.92 337.52L467.96 337.53L468 337.55L468.03 337.56L468.07 337.58L468.11 337.6L468.14 337.62L468.17 337.64L468.21 337.66L468.24 337.68L468.27 337.71L468.3 337.73L468.33 337.76L468.35 337.79L468.38 337.82L468.4 337.85L468.43 337.88L468.45 337.91L468.47 337.95L468.49 337.98L468.51 338.02L468.53 338.05L468.54 338.09L468.56 338.12L468.57 338.16L468.58 338.2L468.59 338.24L468.6 338.28L468.6 338.32L468.61 338.36L468.61 338.4L468.61 338.45L468.63 341.88L468.62 341.88L468.92 420.58L468.92 420.58L468.92 422.41L468.92 422.45L468.92 422.49L468.92 422.49L468.92 422.53Z" id="auQFR3xiO"></path><path d="M450.77 464.12C454.12 464.12 456.84 466.84 456.84 470.19C456.84 473.18 456.84 476.06 456.84 479.05C456.84 482.4 454.12 485.12 450.77 485.12C447.78 485.12 444.88 485.12 441.89 485.12C438.53 485.12 435.81 482.4 435.81 479.05C435.81 476.06 435.81 473.18 435.81 470.19C435.81 466.84 438.53 464.12 441.89 464.12C444.88 464.12 447.78 464.12 450.77 464.12Z" id="n6mbNLzTyD"></path><path d="M403.79 486.39L485.95 486.39L485.95 478.71L403.79 478.71L403.79 486.39Z" id="a4nVFMGkEl"></path><path d="M404.09 478.71L403.79 505.76L411.47 505.85L411.77 478.8L404.09 478.71Z" id="jL2LtMOPK"></path><path d="M441.87 478.71L441.57 505.76L449.25 505.85L449.55 478.8L441.87 478.71Z" id="as87osbXx"></path><path d="M478.45 479.52L478.15 506.57L485.83 506.66L486.13 479.61L478.45 479.52Z" id="hmFHigiM9"></path><path d="M492.01 516.06L478.24 516.14L478.13 497.25L491.9 497.17L492.01 516.06Z" id="g1iHpnCRep"></path><path d="M451.81 518.06L438.04 518.14L437.93 499.25L451.7 499.17L451.81 518.06Z" id="b7lHyDJcp"></path><path d="M411.77 516.06L398 516.14L397.88 497.25L411.65 497.17L411.77 516.06Z" id="a17GNfxeVp"></path><path d="M297.18 315.69L297.35 315.72L297.51 315.76L297.67 315.81L297.82 315.87L297.96 315.93L298.11 316.01L298.24 316.1L298.37 316.19L298.5 316.29L298.61 316.4L298.72 316.52L298.82 316.64L298.92 316.77L299 316.91L299.08 317.05L299.15 317.2L299.21 317.35L299.26 317.51L299.29 317.67L299.32 317.82L298.59 318.38L297.81 319.39L297.3 320.59L297.12 321.92L297.3 323.24L297.81 324.44L298.59 325.45L299.32 326.01L299.29 326.16L299.26 326.32L299.21 326.48L299.15 326.63L299.08 326.78L299 326.92L298.92 327.06L298.82 327.19L298.72 327.31L298.61 327.43L298.5 327.54L298.37 327.64L298.24 327.73L298.11 327.82L297.96 327.9L297.82 327.96L297.67 328.02L297.51 328.07L297.35 328.11L297.18 328.14L297.02 328.15L296.84 328.16L249.82 328.16L249.64 328.15L249.48 328.14L249.31 328.11L249.15 328.07L248.99 328.02L248.84 327.96L248.7 327.9L248.55 327.82L248.42 327.73L248.29 327.64L248.16 327.54L248.05 327.43L247.94 327.31L247.84 327.19L247.74 327.06L247.66 326.92L247.58 326.78L247.51 326.63L247.45 326.48L247.4 326.32L247.37 326.16L247.34 326L247.32 325.83L247.32 325.66L247.32 318.17L247.32 318L247.34 317.83L247.37 317.67L247.4 317.51L247.45 317.35L247.51 317.2L247.58 317.05L247.66 316.91L247.74 316.77L247.84 316.64L247.94 316.52L248.05 316.4L248.16 316.29L248.29 316.19L248.42 316.1L248.55 316.01L248.7 315.93L248.84 315.87L248.99 315.81L249.15 315.76L249.31 315.72L249.48 315.69L249.64 315.68L249.82 315.67L296.84 315.67L297.02 315.68L297.18 315.69Z" id="a1BBA0zIb"></path><path d="M297.6 319.39L297.1 320.59L296.92 321.92L297.1 323.24L297.6 324.44L298.38 325.45L298.45 325.5L251.31 325.5L251.31 318.2L298.62 318.2L298.38 318.38L297.6 319.39Z" id="aghehTsBn"></path><path d="" id="a9HNrBelu"></path><path d="M294.89 307.29L295.05 307.33L295.21 307.38L295.36 307.44L295.5 307.52L295.63 307.6L295.76 307.7L295.88 307.81L295.99 307.93L296.09 308.06L296.17 308.19L296.25 308.34L296.31 308.49L296.36 308.64L296.4 308.8L296.41 308.85L295.86 309.2L295.05 310.33L294.76 311.72L295.05 313.11L295.86 314.25L296.41 314.59L296.4 314.64L296.36 314.8L296.31 314.95L296.25 315.11L296.17 315.25L296.09 315.38L295.99 315.51L295.88 315.63L295.76 315.74L295.63 315.84L295.5 315.92L295.36 316L295.21 316.06L295.05 316.11L294.89 316.15L294.72 316.17L294.55 316.18L259.13 316.18L258.96 316.17L258.79 316.15L258.63 316.11L258.47 316.06L258.32 316L258.18 315.92L258.04 315.84L257.92 315.74L257.8 315.63L257.69 315.51L257.59 315.38L257.5 315.25L257.43 315.11L257.36 314.95L257.31 314.8L257.28 314.64L257.25 314.47L257.25 314.3L257.25 309.14L257.25 308.97L257.28 308.8L257.31 308.64L257.36 308.49L257.43 308.34L257.5 308.19L257.59 308.06L257.69 307.93L257.8 307.81L257.92 307.7L258.04 307.6L258.18 307.52L258.32 307.44L258.47 307.38L258.63 307.33L258.79 307.29L258.96 307.27L259.13 307.26L294.55 307.26L294.72 307.27L294.89 307.29Z" id="bKjWi6X52"></path><path d="M294.9 310.33L294.61 311.72L294.9 313.11L295.71 314.25L295.77 314.28L260.25 314.28L260.25 309.06L295.91 309.06L295.71 309.2L294.9 310.33Z" id="aGOP8nJmJ"></path><path d="" id="f1W4FZC4LZ"></path></defs><g><g><g><use xlink:href="#a4JrN0BInz" opacity="1" fill="#a5632f" fill-opacity="1"></use><g><use xlink:href="#a4JrN0BInz" opacity="1" fill-opacity="0" stroke="#000000" stroke-width="1" stroke-opacity="0"></use></g></g><g><use xlink:href="#guX86c8hN" opacity="1" fill="#e39d57" fill-opacity="1"></use><g><use xlink:href="#guX86c8hN" opacity="1" fill-opacity="0" stroke="#000000" stroke-width="1" stroke-opacity="0"></use></g></g><g><use xlink:href="#jxp07YNqo" opacity="1" fill="#863e18" fill-opacity="1"></use><g><use xlink:href="#jxp07YNqo" opacity="1" fill-opacity="0" stroke="#000000" stroke-width="1" stroke-opacity="0"></use></g></g><g><use xlink:href="#b39AfrcwsN" opacity="1" fill="#aa632d" fill-opacity="1"></use><g><use xlink:href="#b39AfrcwsN" opacity="1" fill-opacity="0" stroke="#000000" stroke-width="1" stroke-opacity="0"></use></g></g><g><use xlink:href="#f2rrtJS3Ap" opacity="1" fill="#4d2510" fill-opacity="1"></use><g><use xlink:href="#f2rrtJS3Ap" opacity="1" fill-opacity="0" stroke="#000000" stroke-width="1" stroke-opacity="0"></use></g></g><g><use xlink:href="#alh5hXZa5" opacity="1" fill="#843f16" fill-opacity="1"></use><g><use xlink:href="#alh5hXZa5" opacity="1" fill-opacity="0" stroke="#000000" stroke-width="1" stroke-opacity="0"></use></g></g><g><use xlink:href="#d50FclT23F" opacity="1" fill="#96a3a6" fill-opacity="1"></use><g><use xlink:href="#d50FclT23F" opacity="1" fill-opacity="0" stroke="#000000" stroke-width="1" stroke-opacity="0"></use></g></g><g><use xlink:href="#c3AiNKfW7P" opacity="1" fill="#bec2c6" fill-opacity="1"></use><g><use xlink:href="#c3AiNKfW7P" opacity="1" fill-opacity="0" stroke="#000000" stroke-width="1" stroke-opacity="0"></use></g></g><g><use xlink:href="#jWHRnjHS" opacity="1" fill="#3f3b3b" fill-opacity="1"></use><g><use xlink:href="#jWHRnjHS" opacity="1" fill-opacity="0" stroke="#000000" stroke-width="1" stroke-opacity="0"></use></g></g><g><use xlink:href="#b3PRJUE7VG" opacity="1" fill="#3f3b3b" fill-opacity="1"></use><g><use xlink:href="#b3PRJUE7VG" opacity="1" fill-opacity="0" stroke="#000000" stroke-width="1" stroke-opacity="0"></use></g></g><g><use xlink:href="#aDVZLTnl6" opacity="1" fill="#96a3a6" fill-opacity="1"></use><g><use xlink:href="#aDVZLTnl6" opacity="1" fill-opacity="0" stroke="#000000" stroke-width="1" stroke-opacity="0"></use></g></g><g><use xlink:href="#cu3HETtFK" opacity="1" fill="#bec2c6" fill-opacity="1"></use><g><use xlink:href="#cu3HETtFK" opacity="1" fill-opacity="0" stroke="#000000" stroke-width="1" stroke-opacity="0"></use></g></g><g><use xlink:href="#d2BavE3pQ" opacity="1" fill="#3f3b3b" fill-opacity="1"></use><g><use xlink:href="#d2BavE3pQ" opacity="1" fill-opacity="0" stroke="#000000" stroke-width="1" stroke-opacity="0"></use></g></g><g><use xlink:href="#a2qrUyyq0h" opacity="1" fill="#3f3b3b" fill-opacity="1"></use><g><use xlink:href="#a2qrUyyq0h" opacity="1" fill-opacity="0" stroke="#000000" stroke-width="1" stroke-opacity="0"></use></g></g><g><use xlink:href="#b1n7GAWDVx" opacity="1" fill="#b7b7b7" fill-opacity="1"></use><g><use xlink:href="#b1n7GAWDVx" opacity="1" fill-opacity="0" stroke="#000000" stroke-width="1" stroke-opacity="0"></use></g></g><g><use xlink:href="#aQhbW0PPG" opacity="1" fill="#969292" fill-opacity="1"></use><g><use xlink:href="#aQhbW0PPG" opacity="1" fill-opacity="0" stroke="#000000" stroke-width="1" stroke-opacity="0"></use></g></g><g><use xlink:href="#a3JP6iXEt2" opacity="1" fill="#a4a1a1" fill-opacity="1"></use><g><use xlink:href="#a3JP6iXEt2" opacity="1" fill-opacity="0" stroke="#000000" stroke-width="1" stroke-opacity="0"></use></g></g><g><use xlink:href="#aUpCwpkK" opacity="1" fill="#969292" fill-opacity="1"></use><g><use xlink:href="#aUpCwpkK" opacity="1" fill-opacity="0" stroke="#000000" stroke-width="1" stroke-opacity="0"></use></g></g><g><use xlink:href="#a7LAImvu5y" opacity="1" fill="#3b875b" fill-opacity="1"></use><g><use xlink:href="#a7LAImvu5y" opacity="1" fill-opacity="0" stroke="#000000" stroke-width="1" stroke-opacity="0"></use></g></g><g><use xlink:href="#aKoKqyAE" opacity="1" fill="#262525" fill-opacity="1"></use><g><use xlink:href="#aKoKqyAE" opacity="1" fill-opacity="0" stroke="#000000" stroke-width="1" stroke-opacity="0"></use></g></g><g><use xlink:href="#a1qvf8SgH6" opacity="1" fill="#bfbcbc" fill-opacity="1"></use><g><use xlink:href="#a1qvf8SgH6" opacity="1" fill-opacity="0" stroke="#000000" stroke-width="1" stroke-opacity="0"></use></g></g><g><use xlink:href="#eWfXRF7ka" opacity="1" fill="#4b4b4b" fill-opacity="1"></use><g><use xlink:href="#eWfXRF7ka" opacity="1" fill-opacity="0" stroke="#000000" stroke-width="1" stroke-opacity="0"></use></g></g><g><use xlink:href="#a1jF2fjm1J" opacity="1" fill="#f8f8f8" fill-opacity="1"></use><g><use xlink:href="#a1jF2fjm1J" opacity="1" fill-opacity="0" stroke="#000000" stroke-width="1" stroke-opacity="0"></use></g></g><g><use xlink:href="#eriQxTEKC" opacity="1" fill="#55bd81" fill-opacity="1"></use><g><use xlink:href="#eriQxTEKC" opacity="1" fill-opacity="0" stroke="#000000" stroke-width="1" stroke-opacity="0"></use></g></g><g><use xlink:href="#bVMQ2C32i" opacity="1" fill="#1c603b" fill-opacity="1"></use><g><use xlink:href="#bVMQ2C32i" opacity="1" fill-opacity="0" stroke="#000000" stroke-width="1" stroke-opacity="0"></use></g></g><g><use xlink:href="#g4BRMctxK0" opacity="1" fill="#4b4b4b" fill-opacity="1"></use><g><use xlink:href="#g4BRMctxK0" opacity="1" fill-opacity="0" stroke="#000000" stroke-width="1" stroke-opacity="0"></use></g></g><g><use xlink:href="#b5v7LN9Ots" opacity="1" fill="#fbd56d" fill-opacity="1"></use><g><use xlink:href="#b5v7LN9Ots" opacity="1" fill-opacity="0" stroke="#000000" stroke-width="1" stroke-opacity="0"></use></g></g><g><use xlink:href="#c4owQwDWB" opacity="1" fill="#e6a425" fill-opacity="1"></use><g><use xlink:href="#c4owQwDWB" opacity="1" fill-opacity="0" stroke="#000000" stroke-width="1" stroke-opacity="0"></use></g></g><g><use xlink:href="#gXZKeNa8P" opacity="1" fill="#1c603b" fill-opacity="1"></use><g><use xlink:href="#gXZKeNa8P" opacity="1" fill-opacity="0" stroke="#000000" stroke-width="1" stroke-opacity="0"></use></g></g><g><use xlink:href="#c7WcryctH" opacity="1" fill="#1c603b" fill-opacity="1"></use><g><use xlink:href="#c7WcryctH" opacity="1" fill-opacity="0" stroke="#000000" stroke-width="1" stroke-opacity="0"></use></g></g><g><use xlink:href="#b1nGylbKgR" opacity="1" fill="#1c603b" fill-opacity="1"></use><g><use xlink:href="#b1nGylbKgR" opacity="1" fill-opacity="0" stroke="#000000" stroke-width="1" stroke-opacity="0"></use></g></g><g><use xlink:href="#a31hHA5BqT" opacity="1" fill="#1c603b" fill-opacity="1"></use><g><use xlink:href="#a31hHA5BqT" opacity="1" fill-opacity="0" stroke="#000000" stroke-width="1" stroke-opacity="0"></use></g></g><g><use xlink:href="#ao0E1NcWQ" opacity="1" fill="#1c603b" fill-opacity="1"></use><g><use xlink:href="#ao0E1NcWQ" opacity="1" fill-opacity="0" stroke="#000000" stroke-width="1" stroke-opacity="0"></use></g></g><g><use xlink:href="#f2SwCOfjG4" opacity="1" fill="#1c603b" fill-opacity="1"></use><g><use xlink:href="#f2SwCOfjG4" opacity="1" fill-opacity="0" stroke="#000000" stroke-width="1" stroke-opacity="0"></use></g></g><g><use xlink:href="#a1Z8MQt7Dz" opacity="1" fill="#1c603b" fill-opacity="1"></use><g><use xlink:href="#a1Z8MQt7Dz" opacity="1" fill-opacity="0" stroke="#000000" stroke-width="1" stroke-opacity="0"></use></g></g><g><use xlink:href="#b1U6tK5zIc" opacity="1" fill="#1c603b" fill-opacity="1"></use><g><use xlink:href="#b1U6tK5zIc" opacity="1" fill-opacity="0" stroke="#000000" stroke-width="1" stroke-opacity="0"></use></g></g><g><use xlink:href="#ajFB16ge0" opacity="1" fill="#1c603b" fill-opacity="1"></use><g><use xlink:href="#ajFB16ge0" opacity="1" fill-opacity="0" stroke="#000000" stroke-width="1" stroke-opacity="0"></use></g></g><g><use xlink:href="#b1H2ORBthY" opacity="1" fill="#1c603b" fill-opacity="1"></use><g><use xlink:href="#b1H2ORBthY" opacity="1" fill-opacity="0" stroke="#000000" stroke-width="1" stroke-opacity="0"></use></g></g><g><use xlink:href="#cUB3tHHDN" opacity="1" fill="#1c603b" fill-opacity="1"></use><g><use xlink:href="#cUB3tHHDN" opacity="1" fill-opacity="0" stroke="#000000" stroke-width="1" stroke-opacity="0"></use></g></g><g><use xlink:href="#a1iqPheHF6" opacity="1" fill="#adadad" fill-opacity="1"></use></g><g><use xlink:href="#eDxWrPOBL" opacity="1" fill="#1c603b" fill-opacity="1"></use><g><use xlink:href="#eDxWrPOBL" opacity="1" fill-opacity="0" stroke="#000000" stroke-width="1" stroke-opacity="0"></use></g></g><g><use xlink:href="#eG0SNN0Pz" opacity="1" fill="#2f2e2e" fill-opacity="1"></use></g><g><use xlink:href="#aejAIopi3" opacity="1" fill="#322f2f" fill-opacity="1"></use></g><g><use xlink:href="#alP8h8XeW" opacity="1" fill="#575656" fill-opacity="1"></use></g><g><use xlink:href="#a4e5awFO8S" opacity="1" fill="#753642" fill-opacity="1"></use></g><g><use xlink:href="#a7zVJkOvZ" opacity="1" fill="#994857" fill-opacity="1"></use></g><g><use xlink:href="#a9ELWToaM" opacity="1" fill="#753642" fill-opacity="1"></use></g><g><use xlink:href="#a8B6dewDT8" opacity="1" fill="#994857" fill-opacity="1"></use></g><g><use xlink:href="#a1m0Ou5KIZ" opacity="1" fill="#753642" fill-opacity="1"></use></g><g><use xlink:href="#auQFR3xiO" opacity="1" fill="#473e40" fill-opacity="1"></use></g><g><use xlink:href="#n6mbNLzTyD" opacity="1" fill="#3e3c3c" fill-opacity="1"></use></g><g><use xlink:href="#a4nVFMGkEl" opacity="1" fill="#c9c9c9" fill-opacity="1"></use></g><g><use xlink:href="#jL2LtMOPK" opacity="1" fill="#c9c9c9" fill-opacity="1"></use></g><g><use xlink:href="#as87osbXx" opacity="1" fill="#c9c9c9" fill-opacity="1"></use></g><g><use xlink:href="#hmFHigiM9" opacity="1" fill="#c9c9c9" fill-opacity="1"></use></g><g><use xlink:href="#g1iHpnCRep" opacity="1" fill="#2d2b2b" fill-opacity="1"></use><g><use xlink:href="#g1iHpnCRep" opacity="1" fill-opacity="0" stroke="#000000" stroke-width="1" stroke-opacity="0"></use></g></g><g><use xlink:href="#b7lHyDJcp" opacity="1" fill="#2d2b2b" fill-opacity="1"></use><g><use xlink:href="#b7lHyDJcp" opacity="1" fill-opacity="0" stroke="#000000" stroke-width="1" stroke-opacity="0"></use></g></g><g><use xlink:href="#a17GNfxeVp" opacity="1" fill="#2d2b2b" fill-opacity="1"></use><g><use xlink:href="#a17GNfxeVp" opacity="1" fill-opacity="0" stroke="#000000" stroke-width="1" stroke-opacity="0"></use></g></g><g><use xlink:href="#a1BBA0zIb" opacity="1" fill="#6a7ab0" fill-opacity="1"></use></g><g><use xlink:href="#aghehTsBn" opacity="1" fill="#edebeb" fill-opacity="1"></use></g><g><g><use xlink:href="#a9HNrBelu" opacity="1" fill-opacity="0" stroke="#000000" stroke-width="1" stroke-opacity="1"></use></g></g><g><use xlink:href="#bKjWi6X52" opacity="1" fill="#864545" fill-opacity="1"></use></g><g><use xlink:href="#aGOP8nJmJ" opacity="1" fill="#edebeb" fill-opacity="1"></use></g><g><g><use xlink:href="#f1W4FZC4LZ" opacity="1" fill-opacity="0" stroke="#000000" stroke-width="1" stroke-opacity="1"></use></g></g></g></g></svg>