<?xml version="1.0" encoding="UTF-8" standalone="no"?>
<!DOCTYPE svg PUBLIC "-//W3C//DTD SVG 1.1//EN" "http://www.w3.org/Graphics/SVG/1.1/DTD/svg11.dtd">
<svg version="1.1" xmlns="http://www.w3.org/2000/svg" xmlns:xlink="http://www.w3.org/1999/xlink" preserveAspectRatio="xMidYMid meet" viewBox="372.41128140703523 291.98 139.67871859296469 226.16384763062354" width="139.68" height="226.16"><defs><path d="M498.68 291.98C502.95 291.98 506.41 295.44 506.41 299.71C506.41 316.02 506.41 357.21 506.41 373.52C506.41 377.79 502.95 381.25 498.68 381.25C480.18 381.25 432.41 381.25 413.91 381.25C409.65 381.25 406.19 377.79 406.19 373.52C406.19 357.21 406.19 316.02 406.19 299.71C406.19 295.44 409.65 291.98 413.91 291.98C432.41 291.98 480.18 291.98 498.68 291.98Z" id="a4e5awFO8S"></path><path d="M504.36 291.98C508.63 291.98 512.09 295.44 512.09 299.71C512.09 316.02 512.09 357.21 512.09 373.52C512.09 377.79 508.63 381.25 504.36 381.25C486.31 381.25 439.88 381.25 421.83 381.25C417.56 381.25 414.1 377.79 414.1 373.52C414.1 357.21 414.1 316.02 414.1 299.71C414.1 295.44 417.56 291.98 421.83 291.98C439.88 291.98 486.31 291.98 504.36 291.98Z" id="a7zVJkOvZ"></path><path d="M468.92 422.53L468.91 422.57L468.9 422.61L468.89 422.65L468.88 422.69L468.87 422.73L468.86 422.77L468.84 422.8L468.83 422.84L468.81 422.87L468.79 422.91L468.77 422.94L468.74 422.97L468.72 423.01L468.7 423.04L468.69 423.04L468.58 423.7L468.17 425.1L467.62 426.35L466.95 427.43L466.17 428.32L465.3 428.99L464.36 429.41L463.35 429.56L462.35 429.42L461.4 429L460.52 428.34L459.74 427.46L459.06 426.38L458.5 425.14L458.08 423.74L457.97 423.08L457.96 423.08L457.93 423.05L457.91 423.01L457.89 422.98L457.87 422.95L457.85 422.92L457.83 422.88L457.81 422.84L457.8 422.81L457.78 422.77L457.77 422.73L457.76 422.69L457.75 422.65L457.74 422.61L457.73 422.57L457.73 422.53L457.73 422.49L457.73 422.45L457.41 338.49L457.41 338.45L457.42 338.4L457.42 338.36L457.43 338.32L457.43 338.28L457.44 338.24L457.45 338.2L457.47 338.17L457.48 338.13L457.5 338.09L457.51 338.06L457.53 338.02L457.55 337.99L457.57 337.95L457.59 337.92L457.62 337.89L457.64 337.86L457.67 337.83L457.69 337.8L457.72 337.77L457.75 337.75L457.78 337.72L457.81 337.7L457.85 337.68L457.88 337.66L457.91 337.64L457.95 337.62L457.98 337.6L458.02 337.58L458.06 337.57L458.1 337.56L458.13 337.55L458.17 337.4L458.72 336.15L459.39 335.07L460.17 334.18L461.04 333.51L461.99 333.09L462.99 332.94L464 333.08L464.95 333.5L465.82 334.16L466.61 335.04L467.29 336.12L467.84 337.36L467.89 337.51L467.92 337.52L467.96 337.53L468 337.55L468.03 337.56L468.07 337.58L468.11 337.6L468.14 337.62L468.17 337.64L468.21 337.66L468.24 337.68L468.27 337.71L468.3 337.73L468.33 337.76L468.35 337.79L468.38 337.82L468.4 337.85L468.43 337.88L468.45 337.91L468.47 337.95L468.49 337.98L468.51 338.02L468.53 338.05L468.54 338.09L468.56 338.12L468.57 338.16L468.58 338.2L468.59 338.24L468.6 338.28L468.6 338.32L468.61 338.36L468.61 338.4L468.61 338.45L468.63 341.88L468.62 341.88L468.92 420.58L468.92 420.58L468.92 422.41L468.92 422.45L468.92 422.49L468.92 422.49L468.92 422.53Z" id="auQFR3xiO"></path><path d="M504.44 405.47C505.34 405.47 506.08 406.2 506.08 407.1C506.08 410.55 506.08 419.27 506.08 422.72C506.08 423.62 505.34 424.36 504.44 424.36C479.74 424.36 407.26 424.36 382.56 424.36C381.66 424.36 380.93 423.62 380.93 422.72C380.93 419.27 380.93 410.55 380.93 407.1C380.93 406.2 381.66 405.47 382.56 405.47C407.26 405.47 479.74 405.47 504.44 405.47Z" id="a9ELWToaM"></path><path d="M391.7 414.91C391.7 420.12 387.38 424.36 382.06 424.36C376.73 424.36 372.41 420.12 372.41 414.91C372.41 409.7 376.73 405.47 382.06 405.47C387.38 405.47 391.7 409.7 391.7 414.91Z" id="a1m0Ou5KIZ"></path><path d="M461.39 422.02L461.43 422.02L461.46 422.03L461.5 422.04L461.54 422.05L461.57 422.06L461.61 422.07L461.64 422.09L461.68 422.11L461.71 422.12L461.74 422.14L461.77 422.17L461.8 422.19L461.83 422.21L461.85 422.24L461.88 422.27L461.9 422.29L461.93 422.32L461.95 422.35L461.97 422.38L461.99 422.42L462 422.45L462.02 422.48L462.03 422.52L462.05 422.55L462.06 422.59L462.06 422.61L463.09 422.99L464.25 423.68L465.14 424.51L465.7 425.45L465.9 426.48L465.7 427.5L465.13 428.44L464.25 429.26L463.08 429.95L462.06 430.34L462.05 430.35L462.04 430.39L462.03 430.43L462.01 430.46L462 430.5L461.98 430.53L461.96 430.56L461.94 430.59L461.92 430.62L461.9 430.65L461.87 430.68L461.85 430.71L461.82 430.73L461.79 430.76L461.77 430.78L461.73 430.8L461.7 430.82L461.67 430.84L461.64 430.86L461.6 430.87L461.57 430.89L461.53 430.9L461.5 430.91L461.46 430.92L461.42 430.92L461.38 430.93L461.34 430.93L461.3 430.93L390.74 430.89L390.7 430.89L390.66 430.89L390.62 430.88L390.58 430.87L390.55 430.87L390.51 430.86L390.47 430.84L390.44 430.83L390.4 430.81L390.37 430.8L390.34 430.78L390.31 430.76L390.28 430.74L390.25 430.71L390.23 430.69L389.01 430.44L387.61 429.91L386.45 429.22L385.56 428.39L385 427.45L384.8 426.43L385 425.4L385.57 424.47L386.45 423.64L387.62 422.95L389.02 422.42L390.23 422.17L390.25 422.15L390.28 422.12L390.31 422.1L390.34 422.08L390.38 422.06L390.41 422.05L390.44 422.03L390.48 422.02L390.51 422L390.55 421.99L390.59 421.99L390.63 421.98L390.67 421.97L390.7 421.97L390.74 421.97L392.32 421.97L392.32 421.97L458.38 422.01L461.31 422.01L461.35 422.01L461.35 422.01L461.39 422.02Z" id="eG0SNN0Pz"></path><path d="M495.39 422.02L495.43 422.02L495.46 422.03L495.5 422.04L495.54 422.05L495.57 422.06L495.61 422.07L495.64 422.09L495.68 422.11L495.71 422.12L495.74 422.14L495.77 422.17L495.8 422.19L495.83 422.21L495.85 422.24L495.88 422.27L495.9 422.29L495.93 422.32L495.95 422.35L495.97 422.38L495.99 422.42L496 422.45L496.02 422.48L496.03 422.52L496.05 422.55L496.06 422.59L496.06 422.61L497.09 422.99L498.25 423.68L499.14 424.51L499.7 425.45L499.9 426.48L499.7 427.5L499.13 428.44L498.25 429.26L497.08 429.95L496.06 430.34L496.05 430.35L496.04 430.39L496.03 430.43L496.01 430.46L496 430.5L495.98 430.53L495.96 430.56L495.94 430.59L495.92 430.62L495.9 430.65L495.87 430.68L495.85 430.71L495.82 430.73L495.79 430.76L495.77 430.78L495.73 430.8L495.7 430.82L495.67 430.84L495.64 430.86L495.6 430.87L495.57 430.89L495.53 430.9L495.5 430.91L495.46 430.92L495.42 430.92L495.38 430.93L495.34 430.93L495.3 430.93L424.74 430.89L424.7 430.89L424.66 430.89L424.62 430.88L424.58 430.87L424.55 430.87L424.51 430.86L424.47 430.84L424.44 430.83L424.4 430.81L424.37 430.8L424.34 430.78L424.31 430.76L424.28 430.74L424.25 430.71L424.23 430.69L423.01 430.44L421.61 429.91L420.45 429.22L419.56 428.39L419 427.45L418.8 426.43L419 425.4L419.57 424.47L420.45 423.64L421.62 422.95L423.02 422.42L424.23 422.17L424.25 422.15L424.28 422.12L424.31 422.1L424.34 422.08L424.38 422.06L424.41 422.05L424.44 422.03L424.48 422.02L424.51 422L424.55 421.99L424.59 421.99L424.63 421.98L424.67 421.97L424.7 421.97L424.74 421.97L426.32 421.97L426.32 421.97L492.38 422.01L495.31 422.01L495.35 422.01L495.35 422.01L495.39 422.02Z" id="alP8h8XeW"></path><path d="M457.41 433.8C457.41 439.01 452.45 443.25 446.33 443.25C440.21 443.25 435.24 439.01 435.24 433.8C435.24 428.59 440.21 424.36 446.33 424.36C452.45 424.36 457.41 428.59 457.41 433.8Z" id="aejAIopi3"></path><path d="M441.57 441L451.08 441L451.08 464.12L441.57 464.12L441.57 441Z" id="a1iqPheHF6"></path><path d="M450.77 464.12C454.12 464.12 456.84 466.84 456.84 470.19C456.84 473.18 456.84 476.06 456.84 479.05C456.84 482.4 454.12 485.12 450.77 485.12C447.78 485.12 444.88 485.12 441.89 485.12C438.53 485.12 435.81 482.4 435.81 479.05C435.81 476.06 435.81 473.18 435.81 470.19C435.81 466.84 438.53 464.12 441.89 464.12C444.88 464.12 447.78 464.12 450.77 464.12Z" id="n6mbNLzTyD"></path><path d="M403.79 486.39L485.95 486.39L485.95 478.71L403.79 478.71L403.79 486.39Z" id="a4nVFMGkEl"></path><path d="M441.87 478.71L441.57 505.76L449.25 505.85L449.55 478.8L441.87 478.71Z" id="as87osbXx"></path><path d="M478.45 479.52L478.15 506.57L485.83 506.66L486.13 479.61L478.45 479.52Z" id="hmFHigiM9"></path><path d="M404.09 478.71L403.79 505.76L411.47 505.85L411.77 478.8L404.09 478.71Z" id="jL2LtMOPK"></path><path d="M411.77 516.06L398 516.14L397.88 497.25L411.65 497.17L411.77 516.06Z" id="a17GNfxeVp"></path><path d="M451.81 518.06L438.04 518.14L437.93 499.25L451.7 499.17L451.81 518.06Z" id="b7lHyDJcp"></path><path d="M492.01 516.06L478.24 516.14L478.13 497.25L491.9 497.17L492.01 516.06Z" id="g1iHpnCRep"></path></defs><g><g><use xlink:href="#a4e5awFO8S" opacity="1" fill="#753642" fill-opacity="1"></use></g><g><use xlink:href="#a7zVJkOvZ" opacity="1" fill="#994857" fill-opacity="1"></use></g><g><use xlink:href="#auQFR3xiO" opacity="1" fill="#473e40" fill-opacity="1"></use></g><g><use xlink:href="#a9ELWToaM" opacity="1" fill="#753642" fill-opacity="1"></use></g><g><use xlink:href="#a1m0Ou5KIZ" opacity="1" fill="#753642" fill-opacity="1"></use></g><g><use xlink:href="#eG0SNN0Pz" opacity="1" fill="#2f2e2e" fill-opacity="1"></use></g><g><use xlink:href="#alP8h8XeW" opacity="1" fill="#575656" fill-opacity="1"></use></g><g><use xlink:href="#aejAIopi3" opacity="1" fill="#322f2f" fill-opacity="1"></use></g><g><use xlink:href="#a1iqPheHF6" opacity="1" fill="#adadad" fill-opacity="1"></use></g><g><use xlink:href="#n6mbNLzTyD" opacity="1" fill="#3e3c3c" fill-opacity="1"></use></g><g><use xlink:href="#a4nVFMGkEl" opacity="1" fill="#c9c9c9" fill-opacity="1"></use></g><g><use xlink:href="#as87osbXx" opacity="1" fill="#c9c9c9" fill-opacity="1"></use></g><g><use xlink:href="#hmFHigiM9" opacity="1" fill="#c9c9c9" fill-opacity="1"></use></g><g><use xlink:href="#jL2LtMOPK" opacity="1" fill="#c9c9c9" fill-opacity="1"></use></g><g><use xlink:href="#a17GNfxeVp" opacity="1" fill="#2d2b2b" fill-opacity="1"></use><g><use xlink:href="#a17GNfxeVp" opacity="1" fill-opacity="0" stroke="#000000" stroke-width="1" stroke-opacity="0"></use></g></g><g><use xlink:href="#b7lHyDJcp" opacity="1" fill="#2d2b2b" fill-opacity="1"></use><g><use xlink:href="#b7lHyDJcp" opacity="1" fill-opacity="0" stroke="#000000" stroke-width="1" stroke-opacity="0"></use></g></g><g><use xlink:href="#g1iHpnCRep" opacity="1" fill="#2d2b2b" fill-opacity="1"></use><g><use xlink:href="#g1iHpnCRep" opacity="1" fill-opacity="0" stroke="#000000" stroke-width="1" stroke-opacity="0"></use></g></g></g></svg>